<svg xmlns="http://www.w3.org/2000/svg" xmlns:xlink="http://www.w3.org/1999/xlink" width="180" zoomAndPan="magnify" viewBox="0 0 135 30.000001" height="40" preserveAspectRatio="xMidYMid meet" version="1.0"><defs><g/><clipPath id="26a7767dcc"><path d="M 115 6 L 132.820312 6 L 132.820312 22 L 115 22 Z M 115 6 " clip-rule="nonzero"/></clipPath></defs><g fill="#096325" fill-opacity="1"><g transform="translate(2.177417, 21.373718)"><g><path d="M 5.296875 -14.359375 C 3.398438 -14.359375 2.039062 -13.128906 1.21875 -10.671875 C 1.195312 -10.617188 1.144531 -10.597656 1.0625 -10.609375 C 0.988281 -10.617188 0.953125 -10.644531 0.953125 -10.6875 C 1.015625 -11.320312 1.082031 -12.144531 1.15625 -13.15625 C 1.238281 -14.164062 1.28125 -14.925781 1.28125 -15.4375 C 1.28125 -15.519531 1.320312 -15.5625 1.40625 -15.5625 C 1.5 -15.5625 1.546875 -15.519531 1.546875 -15.4375 C 1.546875 -15.082031 2 -14.90625 2.90625 -14.90625 C 4.28125 -14.863281 5.878906 -14.84375 7.703125 -14.84375 C 8.640625 -14.84375 9.632812 -14.859375 10.6875 -14.890625 L 12.3125 -14.90625 C 12.914062 -14.90625 13.351562 -14.945312 13.625 -15.03125 C 13.90625 -15.113281 14.085938 -15.273438 14.171875 -15.515625 C 14.191406 -15.578125 14.242188 -15.609375 14.328125 -15.609375 C 14.410156 -15.609375 14.453125 -15.578125 14.453125 -15.515625 C 14.410156 -15.035156 14.359375 -14.269531 14.296875 -13.21875 C 14.242188 -12.164062 14.21875 -11.320312 14.21875 -10.6875 C 14.21875 -10.644531 14.175781 -10.625 14.09375 -10.625 C 14.019531 -10.625 13.972656 -10.644531 13.953125 -10.6875 C 13.710938 -11.914062 13.265625 -12.832031 12.609375 -13.4375 C 11.960938 -14.050781 11.164062 -14.359375 10.21875 -14.359375 C 9.75 -14.359375 9.4375 -14.257812 9.28125 -14.0625 C 9.132812 -13.863281 9.0625 -13.488281 9.0625 -12.9375 L 9.0625 -1.9375 C 9.0625 -1.4375 9.109375 -1.078125 9.203125 -0.859375 C 9.304688 -0.640625 9.488281 -0.488281 9.75 -0.40625 C 10.019531 -0.320312 10.453125 -0.28125 11.046875 -0.28125 C 11.097656 -0.28125 11.125 -0.234375 11.125 -0.140625 C 11.125 -0.046875 11.097656 0 11.046875 0 C 10.472656 0 10.019531 -0.0078125 9.6875 -0.03125 L 7.703125 -0.046875 L 5.78125 -0.03125 C 5.4375 -0.0078125 4.972656 0 4.390625 0 C 4.335938 0 4.3125 -0.046875 4.3125 -0.140625 C 4.3125 -0.234375 4.335938 -0.28125 4.390625 -0.28125 C 4.960938 -0.28125 5.382812 -0.320312 5.65625 -0.40625 C 5.9375 -0.488281 6.128906 -0.644531 6.234375 -0.875 C 6.335938 -1.101562 6.390625 -1.457031 6.390625 -1.9375 L 6.390625 -12.984375 C 6.390625 -13.523438 6.316406 -13.890625 6.171875 -14.078125 C 6.035156 -14.265625 5.742188 -14.359375 5.296875 -14.359375 Z M 5.296875 -14.359375 "/></g></g></g><g fill="#096325" fill-opacity="1"><g transform="translate(17.521295, 21.373718)"><g><path d="M 11.828125 -3.796875 C 11.828125 -3.828125 11.859375 -3.84375 11.921875 -3.84375 C 11.972656 -3.84375 12.019531 -3.828125 12.0625 -3.796875 C 12.101562 -3.773438 12.125 -3.757812 12.125 -3.75 C 11.957031 -2.507812 11.875 -1.378906 11.875 -0.359375 C 11.875 -0.234375 11.847656 -0.140625 11.796875 -0.078125 C 11.753906 -0.0234375 11.664062 0 11.53125 0 L 0.984375 0 C 0.929688 0 0.90625 -0.046875 0.90625 -0.140625 C 0.90625 -0.234375 0.929688 -0.28125 0.984375 -0.28125 C 1.484375 -0.28125 1.847656 -0.320312 2.078125 -0.40625 C 2.316406 -0.488281 2.472656 -0.644531 2.546875 -0.875 C 2.628906 -1.101562 2.671875 -1.457031 2.671875 -1.9375 L 2.671875 -12.984375 C 2.671875 -13.453125 2.628906 -13.796875 2.546875 -14.015625 C 2.472656 -14.242188 2.316406 -14.398438 2.078125 -14.484375 C 1.835938 -14.578125 1.472656 -14.625 0.984375 -14.625 C 0.929688 -14.625 0.90625 -14.671875 0.90625 -14.765625 C 0.90625 -14.859375 0.929688 -14.90625 0.984375 -14.90625 L 11.09375 -14.90625 C 11.25 -14.90625 11.328125 -14.835938 11.328125 -14.703125 L 11.375 -11.53125 C 11.375 -11.488281 11.332031 -11.457031 11.25 -11.4375 C 11.164062 -11.425781 11.113281 -11.445312 11.09375 -11.5 C 10.84375 -12.425781 10.414062 -13.109375 9.8125 -13.546875 C 9.207031 -13.992188 8.410156 -14.21875 7.421875 -14.21875 L 6.703125 -14.21875 C 6.222656 -14.21875 5.875 -14.113281 5.65625 -13.90625 C 5.4375 -13.695312 5.328125 -13.378906 5.328125 -12.953125 L 5.328125 -8.09375 L 7.296875 -8.09375 C 8.222656 -8.09375 8.929688 -8.25 9.421875 -8.5625 C 9.910156 -8.882812 10.15625 -9.332031 10.15625 -9.90625 C 10.15625 -9.945312 10.195312 -9.96875 10.28125 -9.96875 C 10.375 -9.96875 10.421875 -9.945312 10.421875 -9.90625 L 10.40625 -7.75 L 10.421875 -6.609375 C 10.453125 -6.066406 10.46875 -5.640625 10.46875 -5.328125 C 10.46875 -5.285156 10.421875 -5.265625 10.328125 -5.265625 C 10.234375 -5.265625 10.1875 -5.285156 10.1875 -5.328125 C 10.1875 -5.972656 9.9375 -6.484375 9.4375 -6.859375 C 8.9375 -7.234375 8.21875 -7.421875 7.28125 -7.421875 L 5.328125 -7.421875 L 5.328125 -2.03125 C 5.328125 -1.570312 5.410156 -1.226562 5.578125 -1 C 5.753906 -0.78125 6.035156 -0.671875 6.421875 -0.671875 L 7.203125 -0.671875 C 8.441406 -0.671875 9.4375 -0.921875 10.1875 -1.421875 C 10.9375 -1.929688 11.484375 -2.722656 11.828125 -3.796875 Z M 11.828125 -3.796875 "/></g></g></g><g fill="#096325" fill-opacity="1"><g transform="translate(30.693653, 21.373718)"><g><path d="M 16.890625 -0.28125 C 16.921875 -0.28125 16.9375 -0.234375 16.9375 -0.140625 C 16.9375 -0.046875 16.921875 0 16.890625 0 L 12.640625 0 C 12.296875 0 11.644531 -0.628906 10.6875 -1.890625 C 9.726562 -3.160156 8.578125 -4.929688 7.234375 -7.203125 C 7.097656 -7.191406 6.914062 -7.1875 6.6875 -7.1875 C 6.0625 -7.1875 5.625 -7.191406 5.375 -7.203125 L 5.375 -1.9375 C 5.375 -1.4375 5.410156 -1.078125 5.484375 -0.859375 C 5.566406 -0.640625 5.722656 -0.488281 5.953125 -0.40625 C 6.179688 -0.320312 6.550781 -0.28125 7.0625 -0.28125 C 7.09375 -0.28125 7.109375 -0.234375 7.109375 -0.140625 C 7.109375 -0.046875 7.09375 0 7.0625 0 C 6.539062 0 6.128906 -0.0078125 5.828125 -0.03125 L 4.015625 -0.046875 L 2.265625 -0.03125 C 1.953125 -0.0078125 1.523438 0 0.984375 0 C 0.929688 0 0.90625 -0.046875 0.90625 -0.140625 C 0.90625 -0.234375 0.929688 -0.28125 0.984375 -0.28125 C 1.484375 -0.28125 1.847656 -0.320312 2.078125 -0.40625 C 2.316406 -0.488281 2.476562 -0.644531 2.5625 -0.875 C 2.65625 -1.101562 2.703125 -1.457031 2.703125 -1.9375 L 2.703125 -12.984375 C 2.703125 -13.453125 2.660156 -13.796875 2.578125 -14.015625 C 2.492188 -14.242188 2.332031 -14.398438 2.09375 -14.484375 C 1.851562 -14.578125 1.488281 -14.625 1 -14.625 C 0.96875 -14.625 0.953125 -14.671875 0.953125 -14.765625 C 0.953125 -14.859375 0.96875 -14.90625 1 -14.90625 L 2.265625 -14.890625 C 2.992188 -14.859375 3.578125 -14.84375 4.015625 -14.84375 C 4.546875 -14.84375 5.109375 -14.863281 5.703125 -14.90625 C 5.910156 -14.925781 6.164062 -14.941406 6.46875 -14.953125 C 6.78125 -14.972656 7.128906 -14.984375 7.515625 -14.984375 C 8.960938 -14.984375 10.082031 -14.71875 10.875 -14.1875 C 11.675781 -13.65625 12.078125 -12.910156 12.078125 -11.953125 C 12.078125 -11.078125 11.835938 -10.285156 11.359375 -9.578125 C 10.878906 -8.867188 10.242188 -8.300781 9.453125 -7.875 C 10.722656 -5.96875 11.785156 -4.472656 12.640625 -3.390625 C 13.503906 -2.304688 14.269531 -1.515625 14.9375 -1.015625 C 15.601562 -0.523438 16.253906 -0.28125 16.890625 -0.28125 Z M 5.375 -7.875 C 5.75 -7.8125 6.207031 -7.78125 6.75 -7.78125 C 7.675781 -7.78125 8.34375 -8.035156 8.75 -8.546875 C 9.15625 -9.066406 9.359375 -9.898438 9.359375 -11.046875 C 9.359375 -12.347656 9.164062 -13.242188 8.78125 -13.734375 C 8.394531 -14.234375 7.847656 -14.484375 7.140625 -14.484375 C 6.492188 -14.484375 6.035156 -14.363281 5.765625 -14.125 C 5.503906 -13.882812 5.375 -13.488281 5.375 -12.9375 Z M 5.375 -7.875 "/></g></g></g><g fill="#096325" fill-opacity="1"><g transform="translate(47.349992, 21.373718)"><g><path d="M 16.890625 -0.28125 C 16.921875 -0.28125 16.9375 -0.234375 16.9375 -0.140625 C 16.9375 -0.046875 16.921875 0 16.890625 0 L 12.640625 0 C 12.296875 0 11.644531 -0.628906 10.6875 -1.890625 C 9.726562 -3.160156 8.578125 -4.929688 7.234375 -7.203125 C 7.097656 -7.191406 6.914062 -7.1875 6.6875 -7.1875 C 6.0625 -7.1875 5.625 -7.191406 5.375 -7.203125 L 5.375 -1.9375 C 5.375 -1.4375 5.410156 -1.078125 5.484375 -0.859375 C 5.566406 -0.640625 5.722656 -0.488281 5.953125 -0.40625 C 6.179688 -0.320312 6.550781 -0.28125 7.0625 -0.28125 C 7.09375 -0.28125 7.109375 -0.234375 7.109375 -0.140625 C 7.109375 -0.046875 7.09375 0 7.0625 0 C 6.539062 0 6.128906 -0.0078125 5.828125 -0.03125 L 4.015625 -0.046875 L 2.265625 -0.03125 C 1.953125 -0.0078125 1.523438 0 0.984375 0 C 0.929688 0 0.90625 -0.046875 0.90625 -0.140625 C 0.90625 -0.234375 0.929688 -0.28125 0.984375 -0.28125 C 1.484375 -0.28125 1.847656 -0.320312 2.078125 -0.40625 C 2.316406 -0.488281 2.476562 -0.644531 2.5625 -0.875 C 2.65625 -1.101562 2.703125 -1.457031 2.703125 -1.9375 L 2.703125 -12.984375 C 2.703125 -13.453125 2.660156 -13.796875 2.578125 -14.015625 C 2.492188 -14.242188 2.332031 -14.398438 2.09375 -14.484375 C 1.851562 -14.578125 1.488281 -14.625 1 -14.625 C 0.96875 -14.625 0.953125 -14.671875 0.953125 -14.765625 C 0.953125 -14.859375 0.96875 -14.90625 1 -14.90625 L 2.265625 -14.890625 C 2.992188 -14.859375 3.578125 -14.84375 4.015625 -14.84375 C 4.546875 -14.84375 5.109375 -14.863281 5.703125 -14.90625 C 5.910156 -14.925781 6.164062 -14.941406 6.46875 -14.953125 C 6.78125 -14.972656 7.128906 -14.984375 7.515625 -14.984375 C 8.960938 -14.984375 10.082031 -14.71875 10.875 -14.1875 C 11.675781 -13.65625 12.078125 -12.910156 12.078125 -11.953125 C 12.078125 -11.078125 11.835938 -10.285156 11.359375 -9.578125 C 10.878906 -8.867188 10.242188 -8.300781 9.453125 -7.875 C 10.722656 -5.96875 11.785156 -4.472656 12.640625 -3.390625 C 13.503906 -2.304688 14.269531 -1.515625 14.9375 -1.015625 C 15.601562 -0.523438 16.253906 -0.28125 16.890625 -0.28125 Z M 5.375 -7.875 C 5.75 -7.8125 6.207031 -7.78125 6.75 -7.78125 C 7.675781 -7.78125 8.34375 -8.035156 8.75 -8.546875 C 9.15625 -9.066406 9.359375 -9.898438 9.359375 -11.046875 C 9.359375 -12.347656 9.164062 -13.242188 8.78125 -13.734375 C 8.394531 -14.234375 7.847656 -14.484375 7.140625 -14.484375 C 6.492188 -14.484375 6.035156 -14.363281 5.765625 -14.125 C 5.503906 -13.882812 5.375 -13.488281 5.375 -12.9375 Z M 5.375 -7.875 "/></g></g></g><g fill="#096325" fill-opacity="1"><g transform="translate(64.006331, 21.373718)"><g><path d="M 17.109375 -0.28125 C 17.179688 -0.28125 17.21875 -0.234375 17.21875 -0.140625 C 17.21875 -0.046875 17.179688 0 17.109375 0 C 16.785156 0 16.289062 -0.015625 15.625 -0.046875 C 14.925781 -0.078125 14.425781 -0.09375 14.125 -0.09375 C 13.726562 -0.09375 13.242188 -0.078125 12.671875 -0.046875 C 12.128906 -0.015625 11.695312 0 11.375 0 C 11.3125 0 11.28125 -0.046875 11.28125 -0.140625 C 11.28125 -0.234375 11.3125 -0.28125 11.375 -0.28125 C 11.789062 -0.28125 12.085938 -0.320312 12.265625 -0.40625 C 12.453125 -0.5 12.546875 -0.65625 12.546875 -0.875 C 12.546875 -1.144531 12.390625 -1.601562 12.078125 -2.25 L 10.453125 -5.46875 L 4.578125 -5.46875 L 3.65625 -3.390625 C 3.445312 -2.929688 3.34375 -2.5 3.34375 -2.09375 C 3.34375 -1.519531 3.546875 -1.070312 3.953125 -0.75 C 4.359375 -0.4375 4.898438 -0.28125 5.578125 -0.28125 C 5.660156 -0.28125 5.703125 -0.234375 5.703125 -0.140625 C 5.703125 -0.046875 5.660156 0 5.578125 0 C 5.296875 0 4.882812 -0.015625 4.34375 -0.046875 C 3.738281 -0.078125 3.210938 -0.09375 2.765625 -0.09375 C 2.335938 -0.09375 1.820312 -0.078125 1.21875 -0.046875 C 0.675781 -0.015625 0.238281 0 -0.09375 0 C -0.15625 0 -0.1875 -0.046875 -0.1875 -0.140625 C -0.1875 -0.234375 -0.15625 -0.28125 -0.09375 -0.28125 C 0.351562 -0.28125 0.726562 -0.367188 1.03125 -0.546875 C 1.332031 -0.734375 1.632812 -1.0625 1.9375 -1.53125 C 2.238281 -2.007812 2.59375 -2.707031 3 -3.625 L 8.1875 -15 C 8.21875 -15.050781 8.289062 -15.078125 8.40625 -15.078125 C 8.53125 -15.078125 8.597656 -15.050781 8.609375 -15 L 14.578125 -3.265625 C 15.128906 -2.140625 15.585938 -1.359375 15.953125 -0.921875 C 16.328125 -0.492188 16.710938 -0.28125 17.109375 -0.28125 Z M 4.890625 -6.125 L 10.09375 -6.125 L 7.34375 -11.578125 Z M 4.890625 -6.125 "/></g></g></g><g fill="#096325" fill-opacity="1"><g transform="translate(81.092205, 21.373718)"><g><path d="M 15.859375 -14.90625 C 15.910156 -14.90625 15.9375 -14.859375 15.9375 -14.765625 C 15.9375 -14.671875 15.910156 -14.625 15.859375 -14.625 C 15.285156 -14.625 14.738281 -14.367188 14.21875 -13.859375 C 13.695312 -13.347656 13.273438 -12.664062 12.953125 -11.8125 L 8.546875 -0.03125 C 8.523438 0.0390625 8.4375 0.078125 8.28125 0.078125 C 8.125 0.078125 8.035156 0.0390625 8.015625 -0.03125 L 1.9375 -12.9375 C 1.644531 -13.507812 1.351562 -13.929688 1.0625 -14.203125 C 0.78125 -14.484375 0.46875 -14.625 0.125 -14.625 C 0.0703125 -14.625 0.046875 -14.671875 0.046875 -14.765625 C 0.046875 -14.859375 0.0703125 -14.90625 0.125 -14.90625 C 0.363281 -14.90625 0.53125 -14.898438 0.625 -14.890625 C 0.9375 -14.859375 1.347656 -14.84375 1.859375 -14.84375 C 3.222656 -14.84375 4.382812 -14.859375 5.34375 -14.890625 C 5.59375 -14.898438 5.910156 -14.90625 6.296875 -14.90625 C 6.347656 -14.90625 6.375 -14.859375 6.375 -14.765625 C 6.375 -14.671875 6.347656 -14.625 6.296875 -14.625 C 5.816406 -14.625 5.445312 -14.523438 5.1875 -14.328125 C 4.925781 -14.128906 4.796875 -13.847656 4.796875 -13.484375 C 4.796875 -13.210938 4.882812 -12.882812 5.0625 -12.5 L 9.1875 -3.703125 L 12.28125 -11.875 C 12.445312 -12.320312 12.53125 -12.707031 12.53125 -13.03125 C 12.53125 -13.519531 12.378906 -13.90625 12.078125 -14.1875 C 11.785156 -14.476562 11.363281 -14.625 10.8125 -14.625 C 10.757812 -14.625 10.734375 -14.671875 10.734375 -14.765625 C 10.734375 -14.859375 10.757812 -14.90625 10.8125 -14.90625 L 11.984375 -14.890625 C 12.648438 -14.859375 13.242188 -14.84375 13.765625 -14.84375 C 14.066406 -14.84375 14.441406 -14.859375 14.890625 -14.890625 Z M 15.859375 -14.90625 "/></g></g></g><g fill="#096325" fill-opacity="1"><g transform="translate(96.84176, 21.373718)"><g><path d="M 5.421875 -1.9375 C 5.421875 -1.4375 5.457031 -1.078125 5.53125 -0.859375 C 5.613281 -0.640625 5.769531 -0.488281 6 -0.40625 C 6.226562 -0.320312 6.597656 -0.28125 7.109375 -0.28125 C 7.160156 -0.28125 7.1875 -0.234375 7.1875 -0.140625 C 7.1875 -0.046875 7.160156 0 7.109375 0 C 6.585938 0 6.175781 -0.0078125 5.875 -0.03125 L 4.0625 -0.046875 L 2.296875 -0.03125 C 1.972656 -0.0078125 1.539062 0 1 0 C 0.96875 0 0.953125 -0.046875 0.953125 -0.140625 C 0.953125 -0.234375 0.96875 -0.28125 1 -0.28125 C 1.507812 -0.28125 1.882812 -0.320312 2.125 -0.40625 C 2.363281 -0.488281 2.523438 -0.644531 2.609375 -0.875 C 2.703125 -1.101562 2.75 -1.457031 2.75 -1.9375 L 2.75 -12.984375 C 2.75 -13.453125 2.703125 -13.796875 2.609375 -14.015625 C 2.523438 -14.242188 2.363281 -14.398438 2.125 -14.484375 C 1.882812 -14.578125 1.507812 -14.625 1 -14.625 C 0.96875 -14.625 0.953125 -14.671875 0.953125 -14.765625 C 0.953125 -14.859375 0.96875 -14.90625 1 -14.90625 L 2.296875 -14.890625 C 3.023438 -14.859375 3.613281 -14.84375 4.0625 -14.84375 C 4.550781 -14.84375 5.160156 -14.859375 5.890625 -14.890625 L 7.109375 -14.90625 C 7.160156 -14.90625 7.1875 -14.859375 7.1875 -14.765625 C 7.1875 -14.671875 7.160156 -14.625 7.109375 -14.625 C 6.617188 -14.625 6.253906 -14.578125 6.015625 -14.484375 C 5.773438 -14.390625 5.613281 -14.222656 5.53125 -13.984375 C 5.457031 -13.753906 5.421875 -13.40625 5.421875 -12.9375 Z M 5.421875 -1.9375 "/></g></g></g><g fill="#096325" fill-opacity="1"><g transform="translate(105.002896, 21.373718)"><g><path d="M 15.859375 -14.90625 C 15.910156 -14.90625 15.9375 -14.859375 15.9375 -14.765625 C 15.9375 -14.671875 15.910156 -14.625 15.859375 -14.625 C 15.285156 -14.625 14.738281 -14.367188 14.21875 -13.859375 C 13.695312 -13.347656 13.273438 -12.664062 12.953125 -11.8125 L 8.546875 -0.03125 C 8.523438 0.0390625 8.4375 0.078125 8.28125 0.078125 C 8.125 0.078125 8.035156 0.0390625 8.015625 -0.03125 L 1.9375 -12.9375 C 1.644531 -13.507812 1.351562 -13.929688 1.0625 -14.203125 C 0.78125 -14.484375 0.46875 -14.625 0.125 -14.625 C 0.0703125 -14.625 0.046875 -14.671875 0.046875 -14.765625 C 0.046875 -14.859375 0.0703125 -14.90625 0.125 -14.90625 C 0.363281 -14.90625 0.53125 -14.898438 0.625 -14.890625 C 0.9375 -14.859375 1.347656 -14.84375 1.859375 -14.84375 C 3.222656 -14.84375 4.382812 -14.859375 5.34375 -14.890625 C 5.59375 -14.898438 5.910156 -14.90625 6.296875 -14.90625 C 6.347656 -14.90625 6.375 -14.859375 6.375 -14.765625 C 6.375 -14.671875 6.347656 -14.625 6.296875 -14.625 C 5.816406 -14.625 5.445312 -14.523438 5.1875 -14.328125 C 4.925781 -14.128906 4.796875 -13.847656 4.796875 -13.484375 C 4.796875 -13.210938 4.882812 -12.882812 5.0625 -12.5 L 9.1875 -3.703125 L 12.28125 -11.875 C 12.445312 -12.320312 12.53125 -12.707031 12.53125 -13.03125 C 12.53125 -13.519531 12.378906 -13.90625 12.078125 -14.1875 C 11.785156 -14.476562 11.363281 -14.625 10.8125 -14.625 C 10.757812 -14.625 10.734375 -14.671875 10.734375 -14.765625 C 10.734375 -14.859375 10.757812 -14.90625 10.8125 -14.90625 L 11.984375 -14.890625 C 12.648438 -14.859375 13.242188 -14.84375 13.765625 -14.84375 C 14.066406 -14.84375 14.441406 -14.859375 14.890625 -14.890625 Z M 15.859375 -14.90625 "/></g></g></g><g clip-path="url(#26a7767dcc)"><g fill="#096325" fill-opacity="1"><g transform="translate(115.542387, 21.373718)"><g><path d="M 17.109375 -0.28125 C 17.179688 -0.28125 17.21875 -0.234375 17.21875 -0.140625 C 17.21875 -0.046875 17.179688 0 17.109375 0 C 16.785156 0 16.289062 -0.015625 15.625 -0.046875 C 14.925781 -0.078125 14.425781 -0.09375 14.125 -0.09375 C 13.726562 -0.09375 13.242188 -0.078125 12.671875 -0.046875 C 12.128906 -0.015625 11.695312 0 11.375 0 C 11.3125 0 11.28125 -0.046875 11.28125 -0.140625 C 11.28125 -0.234375 11.3125 -0.28125 11.375 -0.28125 C 11.789062 -0.28125 12.085938 -0.320312 12.265625 -0.40625 C 12.453125 -0.5 12.546875 -0.65625 12.546875 -0.875 C 12.546875 -1.144531 12.390625 -1.601562 12.078125 -2.25 L 10.453125 -5.46875 L 4.578125 -5.46875 L 3.65625 -3.390625 C 3.445312 -2.929688 3.34375 -2.5 3.34375 -2.09375 C 3.34375 -1.519531 3.546875 -1.070312 3.953125 -0.75 C 4.359375 -0.4375 4.898438 -0.28125 5.578125 -0.28125 C 5.660156 -0.28125 5.703125 -0.234375 5.703125 -0.140625 C 5.703125 -0.046875 5.660156 0 5.578125 0 C 5.296875 0 4.882812 -0.015625 4.34375 -0.046875 C 3.738281 -0.078125 3.210938 -0.09375 2.765625 -0.09375 C 2.335938 -0.09375 1.820312 -0.078125 1.21875 -0.046875 C 0.675781 -0.015625 0.238281 0 -0.09375 0 C -0.15625 0 -0.1875 -0.046875 -0.1875 -0.140625 C -0.1875 -0.234375 -0.15625 -0.28125 -0.09375 -0.28125 C 0.351562 -0.28125 0.726562 -0.367188 1.03125 -0.546875 C 1.332031 -0.734375 1.632812 -1.0625 1.9375 -1.53125 C 2.238281 -2.007812 2.59375 -2.707031 3 -3.625 L 8.1875 -15 C 8.21875 -15.050781 8.289062 -15.078125 8.40625 -15.078125 C 8.53125 -15.078125 8.597656 -15.050781 8.609375 -15 L 14.578125 -3.265625 C 15.128906 -2.140625 15.585938 -1.359375 15.953125 -0.921875 C 16.328125 -0.492188 16.710938 -0.28125 17.109375 -0.28125 Z M 4.890625 -6.125 L 10.09375 -6.125 L 7.34375 -11.578125 Z M 4.890625 -6.125 "/></g></g></g></g></svg>